STARTFONT 2.1
FONT -Vercel-GeistPixelSquare-Regular-R-Normal--25-250-72-72-P-0-ISO10646-1
SIZE 25 72 72
FONTBOUNDINGBOX 20 25 0 -4
STARTPROPERTIES 5
FONT_ASCENT 21
FONT_DESCENT 4
CAP_HEIGHT 19
FAMILY_NAME "Geist Pixel Square"
WEIGHT_NAME "Regular"
ENDPROPERTIES
CHARS 95
STARTCHAR U+0020
ENCODING 32
SWIDTH 400 0
DWIDTH 10 0
BBX 0 0 0 0
BITMAP
ENDCHAR
STARTCHAR U+0021
ENCODING 33
SWIDTH 280 0
DWIDTH 7 0
BBX 2 19 2 0
BITMAP
C0
C0
C0
C0
C0
C0
C0
C0
C0
C0
C0
C0
C0
00
00
00
C0
C0
C0
ENDCHAR
STARTCHAR U+0022
ENCODING 34
SWIDTH 320 0
DWIDTH 8 0
BBX 6 7 1 12
BITMAP
CC
CC
CC
CC
CC
CC
CC
ENDCHAR
STARTCHAR U+0023
ENCODING 35
SWIDTH 520 0
DWIDTH 13 0
BBX 13 19 0 0
BITMAP
0630
0630
0630
0C60
0C60
0C60
3FF8
7FF0
18C0
18C0
18C0
7FF8
FFF0
3180
3180
3180
6300
6300
6300
ENDCHAR
STARTCHAR U+0024
ENCODING 36
SWIDTH 680 0
DWIDTH 17 0
BBX 13 23 2 -2
BITMAP
0600
0600
0600
1F80
7FE0
6670
C630
C600
C600
E600
7E00
1FC0
07F0
0670
0618
C618
C618
C618
6630
7FF0
1FC0
0600
0600
ENDCHAR
STARTCHAR U+0025
ENCODING 37
SWIDTH 800 0
DWIDTH 20 0
BBX 18 19 1 0
BITMAP
180C00
7E0C00
661800
C31800
C33000
C33000
666000
7E6000
18C000
00C000
018600
019F80
031980
0330C0
0630C0
0630C0
0C1980
0C1F80
0C0600
ENDCHAR
STARTCHAR U+0026
ENCODING 38
SWIDTH 600 0
DWIDTH 15 0
BBX 13 19 1 0
BITMAP
0F00
1F80
39C0
30C0
30C0
30C0
39C0
1980
0F00
3E00
7700
6318
C198
C1D8
C0D0
C060
E070
7FB8
3F18
ENDCHAR
STARTCHAR U+0027
ENCODING 39
SWIDTH 160 0
DWIDTH 4 0
BBX 2 7 1 12
BITMAP
C0
C0
C0
C0
C0
C0
C0
ENDCHAR
STARTCHAR U+0028
ENCODING 40
SWIDTH 400 0
DWIDTH 10 0
BBX 7 23 2 -3
BITMAP
06
1E
18
30
30
60
60
C0
C0
C0
C0
C0
C0
C0
C0
C0
60
60
30
30
18
1E
06
ENDCHAR
STARTCHAR U+0029
ENCODING 41
SWIDTH 400 0
DWIDTH 10 0
BBX 7 23 1 -3
BITMAP
C0
F0
30
18
18
0C
0C
06
06
06
06
06
06
06
06
06
0C
0C
18
18
30
F0
C0
ENDCHAR
STARTCHAR U+002A
ENCODING 42
SWIDTH 440 0
DWIDTH 11 0
BBX 9 9 1 10
BITMAP
6300
6300
3600
1C00
FF80
1C00
3600
6300
6300
ENDCHAR
STARTCHAR U+002B
ENCODING 43
SWIDTH 560 0
DWIDTH 14 0
BBX 12 12 1 2
BITMAP
0600
0600
0600
0600
0600
FFF0
FFF0
0600
0600
0600
0600
0600
ENDCHAR
STARTCHAR U+002C
ENCODING 44
SWIDTH 200 0
DWIDTH 5 0
BBX 3 7 1 -4
BITMAP
E0
E0
E0
60
60
40
80
ENDCHAR
STARTCHAR U+002D
ENCODING 45
SWIDTH 400 0
DWIDTH 10 0
BBX 8 2 1 7
BITMAP
FF
FF
ENDCHAR
STARTCHAR U+002E
ENCODING 46
SWIDTH 200 0
DWIDTH 5 0
BBX 3 3 1 0
BITMAP
E0
E0
E0
ENDCHAR
STARTCHAR U+002F
ENCODING 47
SWIDTH 440 0
DWIDTH 11 0
BBX 9 24 1 -3
BITMAP
0180
0180
0180
0300
0300
0300
0600
0600
0600
0C00
0C00
0C00
1800
1800
1800
3000
3000
3000
6000
6000
6000
C000
C000
C000
ENDCHAR
STARTCHAR U+0030
ENCODING 48
SWIDTH 600 0
DWIDTH 15 0
BBX 13 19 1 0
BITMAP
0F80
3FE0
3060
6070
60F0
C0D8
C198
C198
C318
C318
C618
C618
CC18
CC18
7830
7830
3060
3FE0
0F80
ENDCHAR
STARTCHAR U+0031
ENCODING 49
SWIDTH 520 0
DWIDTH 13 0
BBX 9 19 2 0
BITMAP
0C00
0C00
0C00
FC00
FC00
0C00
0C00
0C00
0C00
0C00
0C00
0C00
0C00
0C00
0C00
0C00
0C00
FF80
FF80
ENDCHAR
STARTCHAR U+0032
ENCODING 50
SWIDTH 680 0
DWIDTH 17 0
BBX 13 19 2 0
BITMAP
0FC0
3FF0
7030
6018
C018
C018
0018
0038
0070
01E0
0780
0E00
1C00
3800
3000
6000
6000
FFF8
FFF8
ENDCHAR
STARTCHAR U+0033
ENCODING 51
SWIDTH 640 0
DWIDTH 16 0
BBX 12 19 2 0
BITMAP
1F80
7FC0
60E0
C060
C060
0060
0060
00C0
0F00
0FC0
00E0
0060
0030
0030
C030
C030
E060
7FE0
3F80
ENDCHAR
STARTCHAR U+0034
ENCODING 52
SWIDTH 720 0
DWIDTH 18 0
BBX 14 19 2 0
BITMAP
0030
0030
0070
00F0
01F0
03B0
0730
0E30
1C30
3830
7030
6030
C030
FFFC
FFFC
0030
0030
0030
0030
ENDCHAR
STARTCHAR U+0035
ENCODING 53
SWIDTH 600 0
DWIDTH 15 0
BBX 12 19 2 0
BITMAP
7FE0
7FE0
6000
6000
6000
C000
CF00
DFC0
E0C0
C060
0070
0030
0030
0030
C030
C060
60E0
7FC0
1F80
ENDCHAR
STARTCHAR U+0036
ENCODING 54
SWIDTH 680 0
DWIDTH 17 0
BBX 13 19 2 0
BITMAP
0FC0
3FF0
3030
6018
6018
C000
C000
CFC0
DFE0
E070
C030
C018
C018
C018
C018
6030
7070
3FE0
0F80
ENDCHAR
STARTCHAR U+0037
ENCODING 55
SWIDTH 600 0
DWIDTH 15 0
BBX 13 19 1 0
BITMAP
FFF8
FFF8
0030
0030
0060
00E0
01C0
0180
0300
0300
0700
0600
0600
0E00
0C00
0C00
0C00
0C00
0C00
ENDCHAR
STARTCHAR U+0038
ENCODING 56
SWIDTH 680 0
DWIDTH 17 0
BBX 13 19 2 0
BITMAP
0F80
3FE0
3060
6030
6030
6030
6030
3060
0F80
3FE0
7070
6030
C018
C018
C018
C018
6030
7FF0
1FC0
ENDCHAR
STARTCHAR U+0039
ENCODING 57
SWIDTH 680 0
DWIDTH 17 0
BBX 13 19 2 0
BITMAP
0F80
3FE0
7070
6030
C018
C018
C018
C018
C018
6038
7FD8
1F98
0018
0018
C030
E030
7060
3FE0
0F80
ENDCHAR
STARTCHAR U+003A
ENCODING 58
SWIDTH 280 0
DWIDTH 7 0
BBX 3 10 2 0
BITMAP
E0
E0
E0
00
00
00
00
E0
E0
E0
ENDCHAR
STARTCHAR U+003B
ENCODING 59
SWIDTH 240 0
DWIDTH 6 0
BBX 3 14 1 -4
BITMAP
E0
E0
E0
00
00
00
00
E0
E0
E0
60
60
40
80
ENDCHAR
STARTCHAR U+003C
ENCODING 60
SWIDTH 560 0
DWIDTH 14 0
BBX 12 13 1 1
BITMAP
0030
00F0
03C0
0F00
3C00
F000
C000
F000
3C00
0F00
03C0
00F0
0030
ENDCHAR
STARTCHAR U+003D
ENCODING 61
SWIDTH 560 0
DWIDTH 14 0
BBX 12 8 1 4
BITMAP
FFF0
FFF0
0000
0000
0000
0000
FFF0
FFF0
ENDCHAR
STARTCHAR U+003E
ENCODING 62
SWIDTH 560 0
DWIDTH 14 0
BBX 12 13 1 1
BITMAP
C000
F000
3C00
0F00
03C0
00F0
0030
00F0
03C0
0F00
3C00
F000
C000
ENDCHAR
STARTCHAR U+003F
ENCODING 63
SWIDTH 560 0
DWIDTH 14 0
BBX 12 19 1 0
BITMAP
0F00
3FC0
70E0
E070
C030
C030
0030
0060
01E0
0180
0300
0700
0600
0600
0000
0000
0600
0600
0600
ENDCHAR
STARTCHAR U+0040
ENCODING 64
SWIDTH 880 0
DWIDTH 22 0
BBX 20 22 1 -3
BITMAP
007C00
03FF00
0F83C0
0C00E0
300060
300030
61E630
63F630
C60E30
C60630
CC0C30
CC0C30
CC0C30
CC0C30
C61660
C7E7C0
61C380
600000
300000
3C0200
0FFC00
03F800
ENDCHAR
STARTCHAR U+0041
ENCODING 65
SWIDTH 640 0
DWIDTH 16 0
BBX 14 19 1 0
BITMAP
0300
0300
0780
0780
0CC0
0CC0
0CC0
1860
1860
1860
3030
3FF0
3FF0
6018
6018
6018
C00C
C00C
C00C
ENDCHAR
STARTCHAR U+0042
ENCODING 66
SWIDTH 680 0
DWIDTH 17 0
BBX 13 19 2 0
BITMAP
FF80
FFE0
C060
C030
C030
C030
C060
C060
FF80
FFE0
C070
C038
C018
C018
C018
C038
C070
FFE0
FF80
ENDCHAR
STARTCHAR U+0043
ENCODING 67
SWIDTH 720 0
DWIDTH 18 0
BBX 16 19 1 0
BITMAP
07E0
1FFC
380E
3006
6003
6003
C003
C000
C000
C000
C000
C000
C003
6003
6003
3006
380E
1FFC
07E0
ENDCHAR
STARTCHAR U+0044
ENCODING 68
SWIDTH 720 0
DWIDTH 18 0
BBX 14 19 2 0
BITMAP
FF80
FFE0
C070
C030
C018
C018
C00C
C00C
C00C
C00C
C00C
C00C
C00C
C018
C018
C030
C070
FFE0
FF80
ENDCHAR
STARTCHAR U+0045
ENCODING 69
SWIDTH 640 0
DWIDTH 16 0
BBX 12 19 2 0
BITMAP
FFF0
FFF0
C000
C000
C000
C000
C000
C000
FFF0
FFF0
C000
C000
C000
C000
C000
C000
C000
FFF0
FFF0
ENDCHAR
STARTCHAR U+0046
ENCODING 70
SWIDTH 600 0
DWIDTH 15 0
BBX 12 19 2 0
BITMAP
FFF0
FFF0
C000
C000
C000
C000
C000
C000
C000
FFE0
FFE0
C000
C000
C000
C000
C000
C000
C000
C000
ENDCHAR
STARTCHAR U+0047
ENCODING 71
SWIDTH 720 0
DWIDTH 18 0
BBX 16 19 1 0
BITMAP
07F0
1FFC
380E
3006
6003
6003
C000
C000
C000
C000
C0FF
C0FF
C003
6003
6003
3003
3807
1FFB
07F3
ENDCHAR
STARTCHAR U+0048
ENCODING 72
SWIDTH 720 0
DWIDTH 18 0
BBX 14 19 2 0
BITMAP
C00C
C00C
C00C
C00C
C00C
C00C
C00C
C00C
FFFC
FFFC
C00C
C00C
C00C
C00C
C00C
C00C
C00C
C00C
C00C
ENDCHAR
STARTCHAR U+0049
ENCODING 73
SWIDTH 240 0
DWIDTH 6 0
BBX 2 19 2 0
BITMAP
C0
C0
C0
C0
C0
C0
C0
C0
C0
C0
C0
C0
C0
C0
C0
C0
C0
C0
C0
ENDCHAR
STARTCHAR U+004A
ENCODING 74
SWIDTH 640 0
DWIDTH 16 0
BBX 12 19 2 0
BITMAP
0030
0030
0030
0030
0030
0030
0030
0030
0030
0030
0030
0030
0030
C030
C030
6070
70E0
3FC0
1F80
ENDCHAR
STARTCHAR U+004B
ENCODING 75
SWIDTH 640 0
DWIDTH 16 0
BBX 13 19 2 0
BITMAP
C018
C038
C070
C0E0
C1C0
C380
C700
CE00
DC00
FC00
FE00
E700
C380
C1C0
C0E0
C070
C038
C018
C018
ENDCHAR
STARTCHAR U+004C
ENCODING 76
SWIDTH 600 0
DWIDTH 15 0
BBX 12 19 2 0
BITMAP
C000
C000
C000
C000
C000
C000
C000
C000
C000
C000
C000
C000
C000
C000
C000
C000
C000
FFF0
FFF0
ENDCHAR
STARTCHAR U+004D
ENCODING 77
SWIDTH 800 0
DWIDTH 20 0
BBX 16 19 2 0
BITMAP
C003
C003
E007
E007
E007
D81B
D81B
D81B
CC33
CC33
CC33
C663
C663
C663
C3C3
C3C3
C183
C183
C003
ENDCHAR
STARTCHAR U+004E
ENCODING 78
SWIDTH 680 0
DWIDTH 17 0
BBX 13 19 2 0
BITMAP
E018
F018
F018
D818
D818
CC18
CC18
C618
C618
C318
C318
C198
C198
C0D8
C0D8
C038
C038
C018
C018
ENDCHAR
STARTCHAR U+004F
ENCODING 79
SWIDTH 720 0
DWIDTH 18 0
BBX 16 19 1 0
BITMAP
07E0
1FF8
381C
300C
6006
6006
C003
C003
C003
C003
C003
C003
C003
6006
6006
300C
381C
1FF8
07E0
ENDCHAR
STARTCHAR U+0050
ENCODING 80
SWIDTH 640 0
DWIDTH 16 0
BBX 13 19 2 0
BITMAP
FF80
FFE0
C070
C030
C018
C018
C018
C030
C070
FFE0
FF80
C000
C000
C000
C000
C000
C000
C000
C000
ENDCHAR
STARTCHAR U+0051
ENCODING 81
SWIDTH 800 0
DWIDTH 20 0
BBX 16 21 2 -2
BITMAP
07E0
1FF8
381C
300C
6006
6006
C003
C003
C003
C003
C003
C003
C003
6186
61C6
30EC
387C
1FF8
07DC
000E
0006
ENDCHAR
STARTCHAR U+0052
ENCODING 82
SWIDTH 680 0
DWIDTH 17 0
BBX 13 19 2 0
BITMAP
FF80
FFE0
C070
C038
C018
C018
C018
C030
C060
FF80
FFE0
C070
C038
C018
C018
C018
C018
C018
C018
ENDCHAR
STARTCHAR U+0053
ENCODING 83
SWIDTH 680 0
DWIDTH 17 0
BBX 13 19 2 0
BITMAP
1F80
7FE0
6070
C030
C018
C018
C000
E000
7E00
1FC0
03F0
0070
0018
C018
C018
C018
6030
7FF0
1FC0
ENDCHAR
STARTCHAR U+0054
ENCODING 84
SWIDTH 640 0
DWIDTH 16 0
BBX 14 19 1 0
BITMAP
FFFC
FFFC
0300
0300
0300
0300
0300
0300
0300
0300
0300
0300
0300
0300
0300
0300
0300
0300
0300
ENDCHAR
STARTCHAR U+0055
ENCODING 85
SWIDTH 720 0
DWIDTH 18 0
BBX 14 19 2 0
BITMAP
C00C
C00C
C00C
C00C
C00C
C00C
C00C
C00C
C00C
C00C
C00C
C00C
C00C
C00C
C00C
6018
7038
3FF0
0FC0
ENDCHAR
STARTCHAR U+0056
ENCODING 86
SWIDTH 640 0
DWIDTH 16 0
BBX 14 19 1 0
BITMAP
C00C
C00C
C00C
6018
6018
6018
3030
3030
3030
1860
1860
1860
0CC0
0CC0
0CC0
0780
0780
0300
0300
ENDCHAR
STARTCHAR U+0057
ENCODING 87
SWIDTH 960 0
DWIDTH 24 0
BBX 20 19 2 0
BITMAP
C00030
C00030
C00030
C06030
C06030
C0F030
C0F030
619860
619860
619860
619860
330CC0
330CC0
330CC0
1E0780
1E0780
0C0300
0C0300
0C0300
ENDCHAR
STARTCHAR U+0058
ENCODING 88
SWIDTH 640 0
DWIDTH 16 0
BBX 12 19 2 0
BITMAP
C030
C030
6060
6060
30C0
30C0
1980
1F80
0F00
0600
0F00
0F00
1980
39C0
30C0
6060
6060
C030
C030
ENDCHAR
STARTCHAR U+0059
ENCODING 89
SWIDTH 560 0
DWIDTH 14 0
BBX 12 19 1 0
BITMAP
C030
C030
C030
6060
6060
30C0
30C0
1980
1980
0F00
0F00
0600
0600
0600
0600
0600
0600
0600
0600
ENDCHAR
STARTCHAR U+005A
ENCODING 90
SWIDTH 720 0
DWIDTH 18 0
BBX 14 19 2 0
BITMAP
FFFC
FFFC
000C
0018
0038
0070
00E0
01C0
0380
0700
0E00
1C00
3800
7000
6000
C000
C000
FFFC
FFFC
ENDCHAR
STARTCHAR U+005B
ENCODING 91
SWIDTH 360 0
DWIDTH 9 0
BBX 6 23 2 -3
BITMAP
FC
FC
C0
C0
C0
C0
C0
C0
C0
C0
C0
C0
C0
C0
C0
C0
C0
C0
C0
C0
C0
FC
FC
ENDCHAR
STARTCHAR U+005C
ENCODING 92
SWIDTH 440 0
DWIDTH 11 0
BBX 9 24 1 -3
BITMAP
C000
C000
C000
6000
6000
6000
3000
3000
3000
1800
1800
1800
0C00
0C00
0C00
0600
0600
0600
0300
0300
0300
0180
0180
0180
ENDCHAR
STARTCHAR U+005D
ENCODING 93
SWIDTH 360 0
DWIDTH 9 0
BBX 6 23 1 -3
BITMAP
FC
FC
0C
0C
0C
0C
0C
0C
0C
0C
0C
0C
0C
0C
0C
0C
0C
0C
0C
0C
0C
FC
FC
ENDCHAR
STARTCHAR U+005E
ENCODING 94
SWIDTH 440 0
DWIDTH 11 0
BBX 9 8 1 10
BITMAP
1C00
1C00
3600
3600
6300
6300
C180
C180
ENDCHAR
STARTCHAR U+005F
ENCODING 95
SWIDTH 560 0
DWIDTH 14 0
BBX 12 2 1 -2
BITMAP
FFF0
FFF0
ENDCHAR
STARTCHAR U+0060
ENCODING 96
SWIDTH 280 0
DWIDTH 7 0
BBX 5 3 1 16
BITMAP
E0
70
38
ENDCHAR
STARTCHAR U+0061
ENCODING 97
SWIDTH 600 0
DWIDTH 15 0
BBX 12 14 2 0
BITMAP
1F00
7FC0
E0C0
C060
0060
00E0
1FE0
7F60
E060
C060
C060
C0E0
7F70
3E30
ENDCHAR
STARTCHAR U+0062
ENCODING 98
SWIDTH 600 0
DWIDTH 15 0
BBX 12 19 2 0
BITMAP
C000
C000
C000
C000
C000
CF80
DFC0
E0E0
E060
C030
C030
C030
C030
C030
C030
E060
E0E0
DFC0
CF80
ENDCHAR
STARTCHAR U+0063
ENCODING 99
SWIDTH 560 0
DWIDTH 14 0
BBX 12 14 1 0
BITMAP
1F80
3FC0
70E0
6070
C030
C000
C000
C000
C000
C030
6070
70E0
3FC0
1F80
ENDCHAR
STARTCHAR U+0064
ENCODING 100
SWIDTH 600 0
DWIDTH 15 0
BBX 12 19 1 0
BITMAP
0030
0030
0030
0030
0030
1F30
3FB0
7070
6070
C030
C030
C030
C030
C030
C030
6070
7070
3FB0
1F30
ENDCHAR
STARTCHAR U+0065
ENCODING 101
SWIDTH 560 0
DWIDTH 14 0
BBX 12 14 1 0
BITMAP
1F80
3FC0
70E0
6060
C030
C030
FFF0
FFF0
C000
C000
6030
7070
3FE0
1F80
ENDCHAR
STARTCHAR U+0066
ENCODING 102
SWIDTH 400 0
DWIDTH 10 0
BBX 8 19 1 0
BITMAP
0F
1F
30
30
30
FF
FF
30
30
30
30
30
30
30
30
30
30
30
30
ENDCHAR
STARTCHAR U+0067
ENCODING 103
SWIDTH 640 0
DWIDTH 16 0
BBX 12 18 2 -4
BITMAP
1F30
3FB0
7070
E070
C030
C030
C030
C030
C030
E070
7070
3FB0
1F30
0030
C030
E070
7FE0
1F80
ENDCHAR
STARTCHAR U+0068
ENCODING 104
SWIDTH 600 0
DWIDTH 15 0
BBX 11 19 2 0
BITMAP
C000
C000
C000
C000
C000
CF80
DFC0
E0E0
C060
C060
C060
C060
C060
C060
C060
C060
C060
C060
C060
ENDCHAR
STARTCHAR U+0069
ENCODING 105
SWIDTH 400 0
DWIDTH 10 0
BBX 8 19 1 0
BITMAP
18
18
18
00
00
F8
F8
18
18
18
18
18
18
18
18
18
18
FF
FF
ENDCHAR
STARTCHAR U+006A
ENCODING 106
SWIDTH 360 0
DWIDTH 9 0
BBX 5 23 2 -4
BITMAP
18
18
18
00
00
F8
F8
18
18
18
18
18
18
18
18
18
18
18
18
18
18
F0
E0
ENDCHAR
STARTCHAR U+006B
ENCODING 107
SWIDTH 560 0
DWIDTH 14 0
BBX 11 19 2 0
BITMAP
C000
C000
C000
C000
C000
C060
C0E0
C1C0
C380
C700
CE00
DC00
FE00
F700
E380
C1C0
C0E0
C060
C060
ENDCHAR
STARTCHAR U+006C
ENCODING 108
SWIDTH 400 0
DWIDTH 10 0
BBX 8 19 1 0
BITMAP
E0
F0
18
18
18
18
18
18
18
18
18
18
18
18
18
18
18
FF
FF
ENDCHAR
STARTCHAR U+006D
ENCODING 109
SWIDTH 800 0
DWIDTH 20 0
BBX 16 14 2 0
BITMAP
CE3C
DF7E
E387
C183
C183
C183
C183
C183
C183
C183
C183
C183
C183
C183
ENDCHAR
STARTCHAR U+006E
ENCODING 110
SWIDTH 600 0
DWIDTH 15 0
BBX 11 14 2 0
BITMAP
CF80
DFC0
E0E0
C060
C060
C060
C060
C060
C060
C060
C060
C060
C060
C060
ENDCHAR
STARTCHAR U+006F
ENCODING 111
SWIDTH 560 0
DWIDTH 14 0
BBX 12 14 1 0
BITMAP
1F80
3FC0
70E0
6060
C030
C030
C030
C030
C030
C030
6060
70E0
3FC0
1F80
ENDCHAR
STARTCHAR U+0070
ENCODING 112
SWIDTH 600 0
DWIDTH 15 0
BBX 12 18 2 -4
BITMAP
CF80
DFC0
E0E0
E070
C030
C030
C030
C030
C030
C030
E070
E0E0
DFC0
CF80
C000
C000
C000
C000
ENDCHAR
STARTCHAR U+0071
ENCODING 113
SWIDTH 600 0
DWIDTH 15 0
BBX 12 18 1 -4
BITMAP
1F30
3FB0
7070
E070
C030
C030
C030
C030
C030
C030
E070
7070
3FB0
1F30
0030
0030
0030
0030
ENDCHAR
STARTCHAR U+0072
ENCODING 114
SWIDTH 480 0
DWIDTH 12 0
BBX 9 14 2 0
BITMAP
F380
F780
3800
3000
3000
3000
3000
3000
3000
3000
3000
3000
FE00
FE00
ENDCHAR
STARTCHAR U+0073
ENCODING 115
SWIDTH 520 0
DWIDTH 13 0
BBX 11 14 1 0
BITMAP
3F80
7FC0
6060
C060
C000
6000
7E00
1FC0
01E0
0060
C060
E060
7FC0
3F80
ENDCHAR
STARTCHAR U+0074
ENCODING 116
SWIDTH 400 0
DWIDTH 10 0
BBX 8 17 1 0
BITMAP
30
30
30
FF
FF
30
30
30
30
30
30
30
30
30
30
1F
0F
ENDCHAR
STARTCHAR U+0075
ENCODING 117
SWIDTH 560 0
DWIDTH 14 0
BBX 10 14 2 0
BITMAP
C0C0
C0C0
C0C0
C0C0
C0C0
C0C0
C0C0
C0C0
C0C0
C0C0
C0C0
E1C0
7EC0
3CC0
ENDCHAR
STARTCHAR U+0076
ENCODING 118
SWIDTH 520 0
DWIDTH 13 0
BBX 11 14 1 0
BITMAP
C060
C060
C060
C060
60C0
60C0
60C0
3180
3180
3180
1B00
1B00
0E00
0E00
ENDCHAR
STARTCHAR U+0077
ENCODING 119
SWIDTH 800 0
DWIDTH 20 0
BBX 16 14 2 0
BITMAP
C003
C003
C183
C183
6186
63C6
63C6
63C6
366C
366C
366C
366C
1C38
1C38
ENDCHAR
STARTCHAR U+0078
ENCODING 120
SWIDTH 520 0
DWIDTH 13 0
BBX 11 14 1 0
BITMAP
C060
C060
E0E0
71C0
3B80
1B00
0E00
0E00
1B00
3B80
60C0
E0E0
C060
C060
ENDCHAR
STARTCHAR U+0079
ENCODING 121
SWIDTH 560 0
DWIDTH 14 0
BBX 12 18 1 -4
BITMAP
C030
C030
C030
6060
6060
6060
30C0
30C0
30C0
1980
1980
1980
0F00
0F00
0600
0600
7C00
7800
ENDCHAR
STARTCHAR U+007A
ENCODING 122
SWIDTH 600 0
DWIDTH 15 0
BBX 11 14 2 0
BITMAP
FFE0
FFE0
0060
00E0
01C0
0380
0700
0E00
1C00
3800
7000
E000
FFE0
FFE0
ENDCHAR
STARTCHAR U+007B
ENCODING 123
SWIDTH 440 0
DWIDTH 11 0
BBX 9 23 1 -3
BITMAP
0780
0F80
0C00
1800
1800
1800
1800
1800
1800
3000
F000
C000
F000
3000
1800
1800
1800
1800
1800
1800
0C00
0F80
0780
ENDCHAR
STARTCHAR U+007C
ENCODING 124
SWIDTH 240 0
DWIDTH 6 0
BBX 2 23 2 -3
BITMAP
C0
C0
C0
C0
C0
C0
C0
C0
C0
C0
C0
C0
C0
C0
C0
C0
C0
C0
C0
C0
C0
C0
C0
ENDCHAR
STARTCHAR U+007D
ENCODING 125
SWIDTH 440 0
DWIDTH 11 0
BBX 9 23 1 -3
BITMAP
F000
F800
1800
0C00
0C00
0C00
0C00
0C00
0C00
0600
0780
0180
0780
0600
0C00
0C00
0C00
0C00
0C00
0C00
1800
F800
F000
ENDCHAR
STARTCHAR U+007E
ENCODING 126
SWIDTH 600 0
DWIDTH 15 0
BBX 13 5 1 6
BITMAP
1C18
7E18
6730
C3F0
C1C0
ENDCHAR
ENDFONT
